<svg width="61" height="60" viewBox="0 0 61 60" fill="none" xmlns="http://www.w3.org/2000/svg">
<g id="award_icon 1">
<path id="Vector" d="M30.4743 7.50001L31.6973 5.31963C30.9378 4.89346 30.0108 4.89346 29.2513 5.31963L30.4743 7.50001ZM33.9683 9.46001L32.7453 11.6404C33.1098 11.8448 33.5196 11.9546 33.9373 11.9598L33.9683 9.46001ZM37.9743 9.50963L40.1238 8.23291C39.6788 7.48398 38.8763 7.02061 38.0053 7.00981L37.9743 9.50963ZM40.0203 12.9541L37.8708 14.2308C38.0843 14.59 38.3843 14.8901 38.7436 15.1035L40.0203 12.9541ZM43.4648 15L45.9646 14.969C45.9538 14.098 45.4903 13.2954 44.7413 12.8506L43.4648 15ZM43.5143 19.006L41.0146 19.0369C41.0196 19.4547 41.1296 19.8646 41.3338 20.229L43.5143 19.006ZM45.4743 22.5L47.6548 23.7231C48.0808 22.9634 48.0808 22.0366 47.6548 21.2769L45.4743 22.5ZM43.5143 25.994L41.3338 24.771C41.1296 25.1355 41.0196 25.5453 41.0146 25.963L43.5143 25.994ZM43.4648 30L44.7413 32.1495C45.4903 31.7045 45.9538 30.902 45.9646 30.031L43.4648 30ZM40.0203 32.046L38.7436 29.8965C38.3843 30.11 38.0843 30.41 37.8708 30.7693L40.0203 32.046ZM37.9743 35.4905L38.0053 37.9903C38.8763 37.9795 39.6788 37.516 40.1238 36.767L37.9743 35.4905ZM33.9683 35.54L33.9373 33.0403C33.5196 33.0453 33.1098 33.1553 32.7453 33.3595L33.9683 35.54ZM30.4743 37.5L29.2513 39.6805C30.0108 40.1065 30.9378 40.1065 31.6973 39.6805L30.4743 37.5ZM26.9803 35.54L28.2033 33.3595C27.8388 33.1553 27.4291 33.0453 27.0113 33.0403L26.9803 35.54ZM22.9743 35.4905L20.8249 36.767C21.2697 37.516 22.0723 37.9795 22.9433 37.9903L22.9743 35.4905ZM20.9284 32.046L23.0778 30.7693C22.8644 30.41 22.5644 30.11 22.2051 29.8965L20.9284 32.046ZM17.4839 30L14.9841 30.031C14.9949 30.902 15.4583 31.7045 16.2072 32.1495L17.4839 30ZM17.4343 25.994L19.9341 25.963C19.9289 25.5453 19.8191 25.1355 19.6147 24.771L17.4343 25.994ZM15.4743 22.5L13.2939 21.2769C12.8678 22.0366 12.8678 22.9634 13.2939 23.7231L15.4743 22.5ZM17.4343 19.006L19.6147 20.229C19.8191 19.8646 19.9289 19.4547 19.9341 19.0369L17.4343 19.006ZM17.4839 15L16.2072 12.8506C15.4583 13.2954 14.9949 14.098 14.9841 14.9691L17.4839 15ZM20.9284 12.9541L22.2051 15.1035C22.5644 14.8901 22.8644 14.5901 23.0778 14.2308L20.9284 12.9541ZM22.9743 9.50963L22.9434 7.00981C22.0723 7.02061 21.2697 7.48398 20.8249 8.23291L22.9743 9.50963ZM26.9803 9.46001L27.0113 11.9598C27.4291 11.9546 27.8388 11.8448 28.2033 11.6404L26.9803 9.46001ZM21.7243 52.5H19.2243C19.2243 53.3913 19.6987 54.215 20.4695 54.6623C21.2403 55.1095 22.1909 55.1128 22.9647 54.6705L21.7243 52.5ZM30.4743 47.5L31.7146 45.3295C30.9461 44.8903 30.0026 44.8903 29.2341 45.3295L30.4743 47.5ZM39.2243 52.5L37.9841 54.6705C38.7578 55.1128 39.7083 55.1095 40.4791 54.6623C41.2498 54.215 41.7243 53.3913 41.7243 52.5H39.2243ZM29.2513 9.68038L32.7453 11.6404L35.1916 7.27963L31.6973 5.31963L29.2513 9.68038ZM33.9373 11.9598L37.9433 12.0094L38.0053 7.00981L33.9993 6.96021L33.9373 11.9598ZM35.8248 10.7864L37.8708 14.2308L42.1696 11.6774L40.1238 8.23291L35.8248 10.7864ZM38.7436 15.1035L42.1881 17.1494L44.7413 12.8506L41.2971 10.8047L38.7436 15.1035ZM40.9648 15.031L41.0146 19.0369L46.0141 18.975L45.9646 14.969L40.9648 15.031ZM41.3338 20.229L43.2938 23.7231L47.6548 21.2769L45.6948 17.7829L41.3338 20.229ZM43.2938 21.2769L41.3338 24.771L45.6948 27.2173L47.6548 23.7231L43.2938 21.2769ZM41.0146 25.963L40.9648 29.969L45.9646 30.031L46.0141 26.025L41.0146 25.963ZM37.9433 32.9905L33.9373 33.0403L33.9993 38.0398L38.0053 37.9903L37.9433 32.9905ZM27.0113 33.0403L23.0053 32.9905L22.9433 37.9903L26.9493 38.0398L27.0113 33.0403ZM19.9837 29.969L19.9341 25.963L14.9345 26.025L14.9841 30.031L19.9837 29.969ZM19.6147 24.771L17.6547 21.2769L13.2939 23.7231L15.2539 27.2173L19.6147 24.771ZM17.6547 23.7231L19.6147 20.229L15.2539 17.7829L13.2939 21.2769L17.6547 23.7231ZM19.9341 19.0369L19.9837 15.031L14.9841 14.9691L14.9345 18.975L19.9341 19.0369ZM18.7607 17.1494L22.2051 15.1035L19.6517 10.8047L16.2072 12.8506L18.7607 17.1494ZM23.0778 14.2308L25.1237 10.7864L20.8249 8.23291L18.779 11.6774L23.0778 14.2308ZM23.0053 12.0094L27.0113 11.9598L26.9493 6.96021L22.9434 7.00981L23.0053 12.0094ZM28.2033 11.6404L31.6973 9.68038L29.2513 5.31963L25.7571 7.27963L28.2033 11.6404ZM42.1881 27.8505L38.7436 29.8965L41.2971 34.1953L44.7413 32.1495L42.1881 27.8505ZM22.2051 29.8965L18.7607 27.8505L16.2072 32.1495L19.6517 34.1953L22.2051 29.8965ZM32.7453 33.3595L29.2513 35.3195L31.6973 39.6805L35.1916 37.7205L32.7453 33.3595ZM31.6973 35.3195L28.2033 33.3595L25.7571 37.7205L29.2513 39.6805L31.6973 35.3195ZM22.9647 54.6705L31.7146 49.6705L29.2341 45.3295L20.484 50.3295L22.9647 54.6705ZM29.2341 49.6705L37.9841 54.6705L40.4646 50.3295L31.7146 45.3295L29.2341 49.6705ZM41.7243 52.5V33.386H36.7243V52.5H41.7243ZM37.8708 30.7693L37.0748 32.1093L41.3738 34.6628L42.1696 33.3228L37.8708 30.7693ZM37.0748 32.1093L35.8248 34.2138L40.1238 36.767L41.3738 34.6628L37.0748 32.1093ZM19.2243 33.386V52.5H24.2243V33.386H19.2243ZM25.1237 34.2138L23.8737 32.1093L19.5749 34.6628L20.8249 36.767L25.1237 34.2138ZM23.8737 32.1093L23.0778 30.7693L18.779 33.3228L19.5749 34.6628L23.8737 32.1093ZM32.9743 22.5C32.9743 23.8807 31.8551 25 30.4743 25V30C34.6166 30 37.9743 26.6423 37.9743 22.5H32.9743ZM30.4743 25C29.0936 25 27.9743 23.8807 27.9743 22.5H22.9743C22.9743 26.6423 26.3321 30 30.4743 30V25ZM27.9743 22.5C27.9743 21.1193 29.0936 20 30.4743 20V15C26.3321 15 22.9743 18.3579 22.9743 22.5H27.9743ZM30.4743 20C31.8551 20 32.9743 21.1193 32.9743 22.5H37.9743C37.9743 18.3579 34.6166 15 30.4743 15V20Z" fill="#4A6CF7"/>
</g>
</svg>
