<svg width="61" height="61" viewBox="0 0 61 61" fill="none" xmlns="http://www.w3.org/2000/svg">
<g id="calender_icon 1">
<g id="Group">
<path id="Vector" d="M19.7303 25.52H13.8937C13.398 25.52 12.9968 25.9212 12.9968 26.4169V32.2534C12.9968 32.7485 13.398 33.1503 13.8937 33.1503H19.7303C20.2259 33.1503 20.6271 32.7485 20.6271 32.2534V26.4169C20.6271 25.9218 20.2259 25.52 19.7303 25.52ZM18.8334 31.3566H14.7905V27.3137H18.8334V31.3566Z" fill="#4A6CF7"/>
<path id="Vector_2" d="M33.343 25.52H27.5064C27.0108 25.52 26.6096 25.9212 26.6096 26.4169V32.2534C26.6096 32.7485 27.0108 33.1503 27.5064 33.1503H33.343C33.8381 33.1503 34.2399 32.7485 34.2399 32.2534V26.4169C34.2399 25.9218 33.8381 25.52 33.343 25.52ZM32.4462 31.3566H28.4033V27.3137H32.4462V31.3566Z" fill="#4A6CF7"/>
<path id="Vector_3" d="M46.5361 25.52H40.6995C40.2044 25.52 39.8026 25.9212 39.8026 26.4169V32.2534C39.8026 32.7485 40.2044 33.1503 40.6995 33.1503H46.5361C47.0311 33.1503 47.4329 32.7485 47.4329 32.2534V26.4169C47.4329 25.9218 47.0311 25.52 46.5361 25.52ZM45.6392 31.3566H41.5963V27.3137H45.6392V31.3566Z" fill="#4A6CF7"/>
<path id="Vector_4" d="M19.7303 38.8149H13.8937C13.398 38.8149 12.9968 39.2167 12.9968 39.7118V45.5484C12.9968 46.0434 13.398 46.4452 13.8937 46.4452H19.7303C20.2259 46.4452 20.6271 46.0434 20.6271 45.5484V39.7118C20.6271 39.2167 20.2259 38.8149 19.7303 38.8149ZM18.8334 44.6515H14.7905V40.6086H18.8334V44.6515Z" fill="#4A6CF7"/>
<path id="Vector_5" d="M33.343 38.8149H27.5064C27.0108 38.8149 26.6096 39.2167 26.6096 39.7118V45.5484C26.6096 46.0434 27.0108 46.4452 27.5064 46.4452H33.343C33.8381 46.4452 34.2399 46.0434 34.2399 45.5484V39.7118C34.2399 39.2167 33.8381 38.8149 33.343 38.8149ZM32.4462 44.6515H28.4033V40.6086H32.4462V44.6515Z" fill="#4A6CF7"/>
<path id="Vector_6" d="M46.5361 38.8149H40.6995C40.2044 38.8149 39.8026 39.2167 39.8026 39.7118V45.5484C39.8026 46.0434 40.2044 46.4452 40.6995 46.4452H46.5361C47.0311 46.4452 47.4329 46.0434 47.4329 45.5484V39.7118C47.4329 39.2167 47.0311 38.8149 46.5361 38.8149ZM45.6392 44.6515H41.5963V40.6086H45.6392V44.6515Z" fill="#4A6CF7"/>
<path id="Vector_7" d="M53.639 8.15325H47.7157C47.7079 8.15325 47.7013 8.15505 47.6936 8.15564V6.96106C47.6936 5.00716 46.1044 3.41797 44.1505 3.41797C42.1966 3.41797 40.6074 5.00776 40.6074 6.96106V8.15325H33.9331V6.96106C33.9331 5.00716 32.344 3.41797 30.39 3.41797C28.4361 3.41797 26.847 5.00776 26.847 6.96106V8.15325H20.1721V6.96106C20.1721 5.00716 18.5829 3.41797 16.629 3.41797C14.6751 3.41797 13.0859 5.00776 13.0859 6.96106V8.15385C13.0829 8.15385 13.08 8.15325 13.077 8.15325H7.15487C6.65922 8.15325 6.25803 8.55444 6.25803 9.05009V55.5336C6.25803 56.0287 6.65922 56.4304 7.15487 56.4304H53.639C54.134 56.4304 54.5358 56.0287 54.5358 55.5336V9.05009C54.5358 8.55444 54.134 8.15325 53.639 8.15325ZM42.4011 6.96106C42.4011 5.99607 43.1855 5.21164 44.1505 5.21164C45.1155 5.21164 45.8999 5.99607 45.8999 6.96106V11.9098C45.8999 12.8742 45.1155 13.6592 44.1505 13.6592C43.1855 13.6592 42.4011 12.8748 42.4011 11.9098V6.96106ZM30.39 5.21164C31.3544 5.21164 32.1395 5.99607 32.1395 6.96106V11.9098C32.1395 12.8742 31.355 13.6592 30.39 13.6592C29.4251 13.6592 28.6406 12.8748 28.6406 11.9098V9.13379C28.643 9.10569 28.649 9.07879 28.649 9.04949C28.649 9.02019 28.643 8.99329 28.6406 8.96519V6.96106C28.6406 5.99607 29.4251 5.21164 30.39 5.21164ZM14.8796 6.96106C14.8796 5.99607 15.664 5.21164 16.629 5.21164C17.5934 5.21164 18.3784 5.99607 18.3784 6.96106V11.9098C18.3784 12.8742 17.594 13.6592 16.629 13.6592C15.664 13.6592 14.8796 12.8748 14.8796 11.9098V6.96106ZM52.7421 54.6368H8.0517V9.94692H13.077C13.08 9.94692 13.0829 9.94632 13.0859 9.94632V11.9104C13.0859 13.8643 14.6757 15.4535 16.629 15.4535C18.5823 15.4535 20.1721 13.8643 20.1721 11.9104V9.94752H26.847V11.9104C26.847 13.8643 28.4367 15.4535 30.39 15.4535C32.3434 15.4535 33.9331 13.8643 33.9331 11.9104V9.94752H40.6074V11.9104C40.6074 13.8643 42.1966 15.4535 44.1505 15.4535C46.1044 15.4535 47.6936 13.8643 47.6936 11.9104V9.94453C47.7013 9.94453 47.7079 9.94692 47.7157 9.94692H52.7421V54.6368Z" fill="#4A6CF7"/>
</g>
</g>
</svg>
