<?xml version="1.0" encoding="utf-8"?>

<!DOCTYPE svg PUBLIC "-//W3C//DTD SVG 1.1//EN" "http://www.w3.org/Graphics/SVG/1.1/DTD/svg11.dtd">
<!-- Uploaded to: SVG Repo, www.svgrepo.com, Generator: SVG Repo Mixer Tools -->
<svg height="50px" width="50px" version="1.1" id="_x32_" xmlns="http://www.w3.org/2000/svg" xmlns:xlink="http://www.w3.org/1999/xlink" 
	 viewBox="0 0 512 512"  xml:space="preserve">
<!-- <style type="text/css">
	.st0{fill:#000000;}
</style> -->
<style type="text/css">
    .st0 {
      fill: #4a6cf7; /* Set the fill color to white */
    }
  </style>
<g>
	<path class="st0" d="M471.151,324.284l-42.821-3.524l-76.546-96.905c-4.632-7.299-11.353-14.448-20.001-21.26
		c-7.227-5.615-15.604-10.743-24.295-14.943c23.607-27.323,23.981-51.862-13.956-44.289c68.921-21.204,124.586-82.166,98.08-127.232
		c-26.509-45.075-104.868,9.06-151.099,103.378c-5.159,10.57-16.025,31.319-30.178,57.847h-8.305h-24.091
		c-12.494,0.528-23.002,2.706-32.11,6.677c-9.194,4.02-17.326,10.217-24.184,18.428L75.32,246.358
		c-0.134,0.126-0.263,0.26-0.386,0.425c-8.648,8.077-14.79,17.932-18.251,29.234c-2.718,8.652-3.547,16.942-4.22,23.603
		l-0.212,2.187L40.407,388.66c-1.322,5.6-1.99,10.924-1.99,15.864c0,15.4,6.32,24.995,10.087,29.337
		c3.209,3.728,6.98,6.709,10.696,8.557c2.064,1.195,4.232,2.013,6.458,2.517c-17.673,32.451-29.262,53.655-29.262,53.655
		c-2.65,10.602,7.956,21.204,18.558,5.301c4.412-6.606,20.676-34.181,39.899-66.853c3.303-2.454,6.59-5.648,10.083-9.831
		c1.502-1.825,2.836-3.649,4.003-5.387c4.593,3.578,11.628,7.424,21.177,8.108c1.49,2.202,3.173,4.263,5.03,6.151
		c3.756,3.838,11.668,10.177,23.807,11.388c0.76,0.944,1.585,1.888,2.462,2.792c4.574,4.868,14.971,13.064,33.399,13.064
		c6.453,0,13.673-1.062,21.499-3.162c5.482,3.87,11.141,7.126,17.233,9.902c16.984,7.747,35.616,11.538,52.841,14.416
		c0.146,0.04,0.495,0.126,0.629,0.142c13.19,2.108,29.439,3.21,48.295,3.21c29.636,0,56.707-2.675,61.025-3.115l73.832,7.598
		c0.185,0,0.366,0.015,0.547,0.015c1.302,0,2.572-0.479,3.551-1.368c1.113-1.007,1.75-2.438,1.75-3.933V329.562
		C476.015,326.801,473.896,324.505,471.151,324.284z M108.939,415.448c-0.334,0-0.672,0.016-1.006,0.087
		c-0.197,0.023-0.362,0.157-0.551,0.204c0.323-0.551,0.653-1.101,0.972-1.652c0.185,0.204,0.354,0.393,0.555,0.598
		c0.299,0.315,0.645,0.629,0.963,0.912C109.564,415.558,109.261,415.448,108.939,415.448z M104.687,327.808
		c-2.918,4.876-4.349,10.351-4.341,15.777c-0.008,7.173,2.505,14.299,7.358,20.009l0.11,0.126l0.979,1.117l0.087,0.094l0.165,0.188
		c-12.431,22.982-24.228,44.674-34.575,63.66c-1.538,0.48-2.769,0.802-3.665,0.834l-0.48,0.016
		c-1.046-0.031-1.856-0.165-3.445-1.117l-0.33-0.22l-0.299-0.11l-0.496-0.284c-1.156-0.66-4.039-2.564-6.568-6.166
		c-2.521-3.634-4.833-8.95-4.852-17.177c0-3.649,0.476-7.865,1.644-12.726l0.059-0.268l11.974-87.836l0.008-0.071
		c0.744-7.275,1.4-15.14,3.83-22.927c2.431-7.77,6.5-15.47,14.37-22.769l0.075-0.071l46.84-44.429l0.209-0.26
		c5.537-6.764,11.588-11.388,18.868-14.597c7.268-3.154,15.852-4.876,26.333-5.34h23.3c-16.678,31.263-36.726,68.37-57.014,105.895
		c-1.164-0.527-2.528-1.141-4.027-1.848c-4.038-1.888-8.91-4.255-12.768-6.151c-3.854-1.903-6.673-3.319-6.681-3.319l-4.739,9.486
		c0.019,0.015,5.085,2.54,10.905,5.379c1.113,0.535,2.261,1.086,3.398,1.652c-0.189,0.032-0.382,0.055-0.574,0.079
		c-0.024,0-0.04,0-0.063,0.023c-0.012,0-0.016,0-0.016,0c-8.459,1.761-15.682,6.976-20.13,14.204L104.687,327.808z M132.971,414.088
		c-7.916-0.024-12.989-3.335-16.525-6.859c-0.952-0.967-1.73-1.911-2.395-2.8c4.68-7.943,9.363-15.872,13.945-23.626l30.941,23.925
		C147.855,411.806,139.306,414.119,132.971,414.088z M146.487,424.91c-0.641-0.653-1.152-1.306-1.667-1.919
		c6.882-1.927,14.519-5.584,22.993-11.404l17.154,13.244c-9.151,5.175-16.402,6.953-21.948,6.953
		C155.095,431.753,150.018,428.418,146.487,424.91z M194.833,447.404c-10.339-0.04-16.426-3.209-20.367-6.622
		c5.919-1.62,12.419-4.523,19.521-8.982l2.458,1.888c3.52,4.546,7.189,8.58,10.992,12.238
		C202.682,446.932,198.463,447.404,194.833,447.404z M460.113,475.262l-63.801-6.504l-0.546,0.071c0,0-1.762,0.173-4.96,0.456
		c-9.571,0.896-31.794,2.627-55.504,2.627c-15.797,0.008-32.27-0.787-45.94-3.052l-2.611-0.44l2.615,0.44
		c-19.502-3.256-35.546-6.992-49.204-13.277c-6.594-3.052-12.651-6.653-18.368-11.152l-0.865-2.375
		c-0.515,0.196-0.964,0.299-1.463,0.472c-5.262-4.42-10.26-9.611-15.097-15.888l-0.413-0.551l-69.995-54.072l-13.898-10.736
		l-3.358-3.492l-0.944-1.102c-3.173-3.727-4.809-8.399-4.809-13.103c0-3.571,0.932-7.133,2.843-10.35l5.388-9.029
		c2.961-4.813,7.778-8.274,13.284-9.375l0.106-0.031c1.285-0.284,2.599-0.432,3.893-0.432c0.763,0,1.498,0.054,2.217,0.149
		l0.102,0.016c1.164,0.134,2.198,0.322,3.13,0.582h0.019c2.278,0.614,4.417,1.668,6.466,3.099l0.268,0.188l13.016,6.89
		l58.244,30.799l30.202-1.604l-0.57-10.602l-27.268,1.448l-55.315-29.243c0.677-1.085,1.337-2.108,1.959-3.067
		c26.513-13.26,140.497-98.093,53.018-71.564c30.1-9.131,55.681-25.144,73.711-41.74c0.676,0.299,1.349,0.52,2.022,0.818
		l0.083,0.047c8.514,3.822,16.985,8.88,24.212,14.534c7.232,5.663,13.202,11.9,16.803,17.846l0.169,0.276l81.156,102.796
		l40.002,3.288V475.262z"/>
</g>
</svg>