<svg width="60" height="60" viewBox="0 0 60 60" fill="none" xmlns="http://www.w3.org/2000/svg">
<g id="service_icon_1 1">
<path id="Vector" opacity="0.5" d="M56.6667 58.8618H36C34.3431 58.8618 33 57.5514 33 55.935V29.2684C33 27.6519 34.3431 26.3416 36 26.3416H56.6667C58.3235 26.3416 59.6667 27.6519 59.6667 29.2684V55.935C59.6667 57.5514 58.3235 58.8618 56.6667 58.8618Z" fill="#2F449D"/>
<path id="Vector_2" d="M34.8333 0C34.0049 0 33.3333 0.655193 33.3333 1.46341V18.0487C33.3333 18.857 34.0049 19.5121 34.8333 19.5121H58.5C59.3284 19.5121 60 18.857 60 18.0487V1.46341C60 0.655191 59.3284 0 58.5 0H34.8333ZM0 57.0732C0 57.8814 0.671572 58.5366 1.5 58.5366H25.1667C25.9951 58.5366 26.6667 57.8814 26.6667 57.0732V40.4879C26.6667 39.6796 25.9951 39.0244 25.1667 39.0244H1.5C0.671574 39.0244 0 39.6796 0 40.4879V57.0732ZM0 31.0569C0 31.8651 0.671572 32.5203 1.5 32.5203H25.1667C25.9951 32.5203 26.6667 31.8651 26.6667 31.0569V1.46341C26.6667 0.655191 25.9951 0 25.1667 0H1.5C0.671574 0 0 0.655193 0 1.46341V31.0569Z" fill="#4A6CF7"/>
<rect x="0.5" y="0.5" width="59" height="59" stroke="black"/>
</g>
</svg>
