<svg width="61" height="60" viewBox="0 0 61 60" fill="none" xmlns="http://www.w3.org/2000/svg">
<g id="checklist_icon 1">
<g id="Group">
<path id="Vector" d="M50.6024 9.30293H45.5904V6.46036C45.5904 5.88193 45.1216 5.41309 44.5431 5.41309H36.9659C36.3195 2.35233 33.596 0.0766602 30.3794 0.0766602C27.1628 0.0766602 24.4393 2.35233 23.7929 5.41306H16.2157C15.6372 5.41306 15.1684 5.88189 15.1684 6.46033V9.30289H10.1562C9.57775 9.30289 9.10889 9.77176 9.10889 10.3502V58.8757C9.10889 59.4541 9.57775 59.923 10.1562 59.923H50.6024C51.1809 59.923 51.6497 59.4541 51.6497 58.8757V10.3502C51.6497 9.77179 51.1809 9.30293 50.6024 9.30293ZM17.263 7.50766H24.7057C25.2596 7.50766 25.7175 7.07649 25.7511 6.52376C25.8989 4.08313 27.9319 2.17129 30.3794 2.17129C32.8269 2.17129 34.8598 4.08313 35.0077 6.52376C35.0413 7.07649 35.4992 7.50766 36.0531 7.50766H43.4958V9.30293V11.3975V13.8912H17.263V11.3975V9.30293V7.50766ZM49.5551 57.8284H11.2036V11.3975H15.1684V14.9385C15.1684 15.517 15.6372 15.9858 16.2157 15.9858H44.5431C45.1216 15.9858 45.5904 15.5169 45.5904 14.9385V11.3975H49.5551V57.8284Z" fill="#4A6CF7"/>
<path id="Vector_2" d="M22.5004 22.8007L18.1915 27.1098L16.2647 25.1829C15.8557 24.7741 15.1926 24.7741 14.7835 25.1829C14.3745 25.592 14.3745 26.2551 14.7835 26.6642L17.4509 29.3316C17.6554 29.536 17.9234 29.6383 18.1915 29.6383C18.4596 29.6383 18.7276 29.536 18.9321 29.3316L23.9817 24.282C24.3906 23.8729 24.3906 23.2099 23.9817 22.8008C23.5726 22.3919 22.9095 22.3919 22.5004 22.8007Z" fill="#4A6CF7"/>
<path id="Vector_3" d="M27.8791 25.0186C27.3007 25.0186 26.8318 25.4874 26.8318 26.0659C26.8318 26.6443 27.3007 27.1132 27.8791 27.1132H45.2346C45.8131 27.1132 46.2819 26.6443 46.2819 26.0659C46.2819 25.4874 45.8131 25.0186 45.2346 25.0186H27.8791Z" fill="#4A6CF7"/>
<path id="Vector_4" d="M22.5004 34.664L18.1915 38.9731L16.2647 37.0462C15.8557 36.6374 15.1926 36.6374 14.7835 37.0462C14.3745 37.4553 14.3745 38.1183 14.7835 38.5275L17.4509 41.1948C17.6554 41.3993 17.9234 41.5015 18.1915 41.5015C18.4596 41.5015 18.7276 41.3993 18.9321 41.1948L23.9817 36.1453C24.3906 35.7362 24.3906 35.0732 23.9817 34.664C23.5726 34.2552 22.9095 34.2552 22.5004 34.664Z" fill="#4A6CF7"/>
<path id="Vector_5" d="M45.2346 36.8823H27.8791C27.3007 36.8823 26.8318 37.3512 26.8318 37.9297C26.8318 38.5081 27.3007 38.977 27.8791 38.977H45.2346C45.8131 38.977 46.2819 38.5081 46.2819 37.9297C46.2819 37.3512 45.8131 36.8823 45.2346 36.8823Z" fill="#4A6CF7"/>
<path id="Vector_6" d="M22.5004 46.5273L18.1915 50.8364L16.2647 48.9094C15.8557 48.5006 15.1926 48.5006 14.7835 48.9094C14.3745 49.3186 14.3745 49.9816 14.7835 50.3907L17.4509 53.0581C17.6554 53.2625 17.9234 53.3647 18.1915 53.3647C18.4596 53.3647 18.7276 53.2625 18.9321 53.0581L23.9817 48.0086C24.3906 47.5994 24.3906 46.9364 23.9817 46.5273C23.5726 46.1185 22.9095 46.1185 22.5004 46.5273Z" fill="#4A6CF7"/>
<path id="Vector_7" d="M45.2346 48.7456H27.8791C27.3007 48.7456 26.8318 49.2145 26.8318 49.7929C26.8318 50.3714 27.3007 50.8402 27.8791 50.8402H45.2346C45.8131 50.8402 46.2819 50.3714 46.2819 49.7929C46.2819 49.2145 45.8131 48.7456 45.2346 48.7456Z" fill="#4A6CF7"/>
</g>
</g>
</svg>
