<svg width="60" height="60" viewBox="0 0 60 60" fill="none" xmlns="http://www.w3.org/2000/svg">
<g id="service_icon_3 1" clip-path="url(#clip0_62_1085)">
<path id="Vector" opacity="0.5" d="M30 45C34.125 45 37.5 48.375 37.5 52.5C37.5 56.625 34.125 60 30 60C25.875 60 22.5 56.625 22.5 52.5C22.5 48.375 25.875 45 30 45ZM52.5 45C56.625 45 60 48.375 60 52.5C60 56.625 56.625 60 52.5 60C48.375 60 45 56.625 45 52.5C45 48.375 48.375 45 52.5 45ZM52.5 22.5C56.625 22.5 60 25.875 60 30C60 34.125 56.625 37.5 52.5 37.5C48.375 37.5 45 34.125 45 30C45 25.875 48.375 22.5 52.5 22.5Z" fill="#2F449D"/>
<path id="Vector_2" d="M30 22.5C34.125 22.5 37.5 25.875 37.5 30C37.5 34.125 34.125 37.5 30 37.5C25.875 37.5 22.5 34.125 22.5 30C22.5 25.875 25.875 22.5 30 22.5ZM30 0C34.125 0 37.5 3.375 37.5 7.5C37.5 11.625 34.125 15 30 15C25.875 15 22.5 11.625 22.5 7.5C22.5 3.375 25.875 0 30 0ZM7.5 45C11.625 45 15 48.375 15 52.5C15 56.625 11.625 60 7.5 60C3.375 60 0 56.625 0 52.5C0 48.375 3.375 45 7.5 45ZM7.5 22.5C11.625 22.5 15 25.875 15 30C15 34.125 11.625 37.5 7.5 37.5C3.375 37.5 0 34.125 0 30C0 25.875 3.375 22.5 7.5 22.5ZM7.5 0C11.625 0 15 3.375 15 7.5C15 11.625 11.625 15 7.5 15C3.375 15 0 11.625 0 7.5C0 3.375 3.375 0 7.5 0ZM52.5 0C56.625 0 60 3.375 60 7.5C60 11.625 56.625 15 52.5 15C48.375 15 45 11.625 45 7.5C45 3.375 48.375 0 52.5 0Z" fill="#4A6CF7"/>
</g>
<defs>
<clipPath id="clip0_62_1085">
<rect width="60" height="60" fill="white"/>
</clipPath>
</defs>
</svg>
