<svg width="60" height="60" viewBox="0 0 60 60" fill="none" xmlns="http://www.w3.org/2000/svg">
<g id="service_icon_5 1" clip-path="url(#clip0_62_1076)">
<path id="Vector" opacity="0.5" d="M58.5 18C59.3284 18 60 18.6716 60 19.5V58.5C60 59.3284 59.3284 60 58.5 60H19.5C18.6716 60 18 59.3284 18 58.5V49.5C18 48.6716 18.6716 48 19.5 48H46.5C47.3284 48 48 47.3284 48 46.5V19.5C48 18.6716 48.6716 18 49.5 18H58.5Z" fill="#2F449D"/>
<path id="Vector_2" d="M40.5 0H1.5C0.671573 0 0 0.671573 0 1.5V40.5C0 41.3284 0.671573 42 1.5 42H40.5C41.3284 42 42 41.3284 42 40.5V1.5C42 0.671573 41.3284 0 40.5 0Z" fill="#4A6CF7"/>
</g>
<defs>
<clipPath id="clip0_62_1076">
<rect width="60" height="60" fill="white"/>
</clipPath>
</defs>
</svg>
