<svg width="60" height="60" viewBox="0 0 60 60" fill="none" xmlns="http://www.w3.org/2000/svg">
<g id="service_icon_4 1" clip-path="url(#clip0_62_1079)">
<path id="Vector" opacity="0.5" d="M47.8414 36.186C51.1849 36.186 54.2245 37.344 56.3523 39.6599L58.7196 37.4055C59.1921 36.9555 59.9998 37.2742 59.9998 37.9105V47.0513C59.9998 47.4458 59.6641 47.7656 59.2498 47.7656H49.6521C48.9838 47.7656 48.6492 46.9962 49.1217 46.5463L53.3127 42.5549C51.7929 41.3969 49.9692 40.5285 47.8414 40.5285C43.5859 40.5285 40.2423 43.7128 40.2423 47.7656C40.2423 51.8185 43.5859 55.0029 47.8414 55.0029C50.0323 55.0029 51.9766 54.0628 53.4517 52.6062C53.7609 52.3009 54.178 52.1079 54.6232 52.1079H57.9802C58.5108 52.1079 58.8715 52.6185 58.6321 53.0695C56.614 56.8723 52.6171 59.3452 47.8414 59.3452C41.1541 59.3452 35.6829 54.1343 35.6829 47.7656C35.6829 41.3969 41.1541 36.186 47.8414 36.186Z" fill="#2F449D"/>
<path id="Vector_2" d="M28.0839 47.7657C28.0839 44.796 28.877 42.0783 29.9699 39.6121C30.0812 39.3613 29.8896 39.081 29.6037 39.081C23.8284 39.081 18.965 34.4491 18.965 28.9489C18.965 23.4486 23.8284 18.8167 29.6037 18.8167C35.379 18.8167 40.2425 23.4486 40.2425 28.9489C40.2425 29.3007 41.0845 30.0077 41.4369 29.9019C43.3911 29.3151 45.424 28.9489 47.8414 28.9489C49.1625 28.9489 50.4836 29.1676 51.8046 29.415C52.1133 29.4727 52.4008 29.2484 52.4008 28.9489C52.4008 28.3856 52.4009 27.7006 52.3181 27.0517C52.2405 26.4453 52.4398 25.8051 52.9501 25.435L58.4802 21.4221C59.0882 20.8431 59.0882 20.2641 58.7841 19.6853L52.7785 9.67594C52.7295 9.59427 52.6908 9.50713 52.6532 9.42016C52.3715 8.76993 51.8772 8.69454 51.1702 8.68581C50.9794 8.68344 50.79 8.71934 50.6129 8.78684L44.0936 11.2704C43.5919 11.4615 43.0243 11.3767 42.583 11.08C41.4233 10.3003 40.1282 9.64952 38.8128 9.01803C38.3757 8.80819 38.0719 8.41003 38.0003 7.9489L37.0093 1.57963C36.9398 1.13225 36.992 0.55705 36.5989 0.303207C36.3353 0.132909 35.9742 0 35.6829 0H23.5244C22.9531 0 22.1136 0.511186 22.0143 1.05323C22.0017 1.12226 21.9992 1.19275 21.9883 1.26206L20.9238 8.10583C20.841 8.63846 20.447 9.07436 19.931 9.29434C18.6658 9.8337 17.5095 10.6049 16.229 11.2752C15.847 11.4752 15.39 11.4878 14.9877 11.3281L8.60317 8.79456C8.42037 8.72201 8.2241 8.68331 8.02608 8.68594C7.2759 8.69593 6.73721 8.78357 6.19851 9.55313L0.119246 19.6853C-0.184717 20.2641 0.119247 20.8431 0.727173 21.4221L6.51947 25.6251C6.89184 25.8954 7.11391 26.3166 7.06185 26.7596C6.97602 27.49 6.80643 28.3001 6.80643 28.9489C6.80643 29.5211 6.80643 30.2191 6.89342 30.8771C6.97151 31.468 6.78844 32.092 6.30246 32.4667L0.727173 36.765C0.119247 37.344 0.119247 37.923 0.42321 38.502L6.50247 48.6341C6.7731 49.1496 7.28466 49.2061 8.03716 49.2123C8.22798 49.2139 8.41728 49.1784 8.59446 49.1109L15.1137 46.6274C15.6153 46.4363 16.1831 46.5211 16.6243 46.8177C17.7841 47.5974 19.0793 48.2483 20.3946 48.8797C20.8317 49.0896 21.1355 49.4877 21.2071 49.9489L22.2924 56.9251C22.3032 56.9944 22.3065 57.0647 22.3152 57.1343C22.3833 57.6763 22.9718 58.1873 23.8284 58.1873H28.695C29.8786 58.1873 30.6098 56.9319 30.0941 55.9173C28.7997 53.3704 28.0839 50.6533 28.0839 47.7657Z" fill="#4A6CF7"/>
</g>
<defs>
<clipPath id="clip0_62_1079">
<rect width="60" height="60" fill="white"/>
</clipPath>
</defs>
</svg>
