<svg width="60" height="60" viewBox="0 0 60 60" fill="none" xmlns="http://www.w3.org/2000/svg">
<g id="service_icon_6 1" clip-path="url(#clip0_62_1082)">
<path id="Vector" opacity="0.5" d="M47.3685 50.5263C43.0105 50.5263 39.4737 47.3825 39.4737 43.5089C39.4737 42.5545 39.679 41.6407 40.0702 40.8019C40.1938 40.5369 40.1407 40.2281 39.9124 40.0253L37.4995 37.8803C37.1649 37.5829 36.6064 37.6317 36.373 37.9977C35.3382 39.6193 34.7368 41.4999 34.7368 43.5089C34.7368 49.7123 40.3894 54.7369 47.3685 54.7369V57.3379C47.3685 57.9319 48.1762 58.2294 48.6487 57.8094L53.9433 53.103C54.2362 52.8427 54.2362 52.4206 53.9433 52.1602L48.6487 47.4539C48.1762 47.0339 47.3685 47.3314 47.3685 47.9254V50.5263ZM47.3685 32.2807V29.6797C47.3685 29.0858 46.5606 28.7883 46.0881 29.2083L40.7935 33.9146C40.5006 34.175 40.5006 34.5971 40.7935 34.8574L46.0881 39.5638C46.5606 39.9838 47.3685 39.6863 47.3685 39.0923V36.4913C51.7263 36.4913 55.2631 39.6351 55.2631 43.5089C55.2631 44.4631 55.0578 45.377 54.6666 46.2157C54.543 46.4807 54.5961 46.7895 54.8244 46.9925L57.2373 49.1373C57.5719 49.4349 58.1304 49.3861 58.3638 49.0201C59.3986 47.3983 60 45.5178 60 43.5089C60 37.3054 54.3474 32.2807 47.3685 32.2807Z" fill="#2F449D"/>
<path id="Vector_2" d="M28.4211 43.5088C28.4211 47.294 29.7148 50.7959 31.9412 53.7061C32.6856 54.6792 31.9581 56.1404 30.6343 56.1404H6.31579C2.81052 56.1404 0 53.6421 0 50.5263V5.61404C0 2.52632 2.81052 0 6.31579 0H9.47369H25.2631H44.2105C47.6842 0 50.5263 2.49824 50.5263 5.61404V23.9392C50.5263 24.6709 49.7706 25.2632 48.9474 25.2632C37.6105 25.2632 28.4211 33.4316 28.4211 43.5088Z" fill="#4A6CF7"/>
</g>
<defs>
<clipPath id="clip0_62_1082">
<rect width="60" height="60" fill="white"/>
</clipPath>
</defs>
</svg>
