<svg width="60" height="60" viewBox="0 0 60 60" fill="none" xmlns="http://www.w3.org/2000/svg">
<g id="service_icon_2 1">
<path id="Vector" opacity="0.5" d="M30.8871 51.3876C30.3591 51.7758 29.6404 51.7763 29.112 51.389L6.28744 34.6619C5.75924 34.2747 5.04097 34.275 4.51309 34.6626L1.64702 36.7667C0.83059 37.3661 0.83059 38.5856 1.64702 39.185L29.1123 59.3483C29.6406 59.736 30.3594 59.736 30.8877 59.3483L58.3543 39.1839C59.1703 38.5848 59.1709 37.3661 58.3554 36.7664L55.4551 34.6334C54.9265 34.2447 54.2067 34.2446 53.6781 34.6332L30.8871 51.3876Z" fill="#2F449D"/>
<path id="Vector_2" d="M29.112 43.3965C29.6405 43.7844 30.3594 43.7841 30.8877 43.3959L54.5334 26.0199L58.3468 23.2325C59.1656 22.6341 59.1669 21.4125 58.3494 20.8124L30.8877 0.651695C30.3594 0.263886 29.6406 0.263889 29.1123 0.651698L1.64559 20.8161C0.829579 21.4151 0.829071 22.6338 1.64457 23.2337L5.43333 26.0199L29.112 43.3965Z" fill="#4A6CF7"/>
</g>
</svg>
